# xmcd
#
# Track frame offsets:
#	150
#	8175
#	24446
#	47171
#	66223
#	79951
#	101029
#	117902
#	134255
#	152409
#
# Disc length: 2205 seconds
#
# Revision: 1
# Processed by: cddbd v1.5.2PL0 Copyright (c) Steve Scherf et al.
# Submitted via: audiograbber 1.83.01
#
DISCID=7b089b0a
DTITLE=The King Family - Our First Album
DYEAR=1900
DGENRE=Gospel
TTITLE0=Beautiful Country
TTITLE1=Trip To The Altar
TTITLE2=Don't That Sound Like Heaven
TTITLE3=Heaven's Point Of Veiw
TTITLE4=He'll Stand By Me
TTITLE5=It Wont Be Today
TTITLE6=Not My Will
TTITLE7=Ten Thousand Years
TTITLE8=The Cross
TTITLE9=When God's Confort Comes Down
EXTD=
EXTT0=
EXTT1=
EXTT2=
EXTT3=
EXTT4=
EXTT5=
EXTT6=
EXTT7=
EXTT8=
EXTT9=
PLAYORDER=
